<svg width="160" height="58" viewBox="0 0 160 58" fill="none" xmlns="http://www.w3.org/2000/svg">
<rect width="160" height="58" rx="29" fill="#6300FF"/>
<path d="M34.1016 24.8672C34.1016 27.7383 35.5664 30.8047 38.5547 32.0547L37.207 34.0078C35.1074 33.1191 33.6621 31.3516 32.8711 29.1836C32.0605 31.5371 30.5859 33.4902 28.4961 34.457L27.0703 32.4844C30.0195 31.1758 31.543 27.875 31.543 24.8672V23.7734H27.7734V21.7422H37.8125V23.7734H34.1016V24.8672ZM42.0898 20.0234V37.7969H39.5703V20.0234H42.0898ZM58.8281 20.8242V22.25C58.8281 23.6367 58.8281 25.1797 58.418 27.2109H60.7617V29.2227H44.4922V27.2109H55.8984C56.2891 25.4336 56.3379 24.0566 56.3477 22.8164H46.4844V20.8242H58.8281ZM58.7695 31.0977V37.6016H46.4258V31.0977H58.7695ZM48.8672 33.0508V35.6094H56.2891V33.0508H48.8672ZM82.6367 28.8125V30.7852H75.9375V33.8516H73.4766V30.7852H66.3672V28.8125H82.6367ZM80.5469 20.8047V27.3477H68.3984V20.8047H80.5469ZM70.8398 22.7383V25.4141H78.1055V22.7383H70.8398ZM80.8398 35.4922V37.4844H68.2812V32.3086H70.7617V35.4922H80.8398ZM89.4336 21.2148C92.2461 21.1953 94.3555 23.0312 94.3555 25.5703C94.3555 28.1289 92.2461 29.9453 89.4336 29.9453C86.6211 29.9453 84.4922 28.1289 84.4922 25.5703C84.4922 23.0312 86.6211 21.1953 89.4336 21.2148ZM89.4336 23.3633C88.0273 23.3633 86.9531 24.1836 86.9727 25.5703C86.9531 26.9766 88.0273 27.7773 89.4336 27.7773C90.8398 27.7773 91.9141 26.9766 91.9336 25.5703C91.9141 24.1836 90.8594 23.3633 89.4336 23.3633ZM98.6133 20.0234V37.8359H96.1328V20.0234H98.6133ZM83.75 32.1719C86.9141 32.1914 91.3086 32.1328 95.1172 31.6055L95.3125 33.4023C91.3672 34.1641 87.1484 34.2031 84.043 34.2031L83.75 32.1719ZM114.98 20.0234V26.9766H117.598V29.0273H114.98V37.7969H112.52V20.0234H114.98ZM111.309 22.6797V24.6719H100.859V22.6797H104.883V20.2969H107.383V22.6797H111.309ZM106.133 25.668C108.73 25.668 110.664 27.4258 110.664 29.9062C110.664 32.3867 108.73 34.1445 106.133 34.1445C103.516 34.1445 101.582 32.3867 101.582 29.9062C101.582 27.4258 103.516 25.668 106.133 25.668ZM106.133 27.6797C104.883 27.6992 103.965 28.5391 103.965 29.9062C103.965 31.293 104.883 32.1133 106.133 32.0938C107.383 32.1133 108.281 31.293 108.281 29.9062C108.281 28.5391 107.383 27.6992 106.133 27.6797ZM133.184 20.0234V37.7969H130.664V20.0234H133.184ZM127.852 21.8789C127.852 27.2695 125.957 31.7422 119.609 34.75L118.301 32.7578C122.891 30.5898 124.912 27.7773 125.312 23.832H119.258V21.8789H127.852Z" fill="white"/>
</svg>
