<svg width="163" height="36" viewBox="0 0 163 36" fill="none" xmlns="http://www.w3.org/2000/svg">
<g clip-path="url(#clip0_54_4)">
<path d="M21.0376 21.0273L28.0638 14.0137H34.3504C34.7613 14.0137 35.09 14.3418 35.09 14.752V20.7402C35.09 20.9453 35.0079 21.1094 34.8846 21.2734L28.3103 27.8359C28.1871 27.959 27.9816 28.041 27.7762 28.041H21.7772C21.3663 28.041 21.0376 27.7129 21.0376 27.3027V21.0273Z" fill="white"/>
<path d="M0.205445 13.8086L6.77968 7.24609C6.94404 7.08203 7.10839 7 7.31384 7H13.3128C13.7237 7 14.0524 7.32812 14.0524 7.73828V14.0137L7.02622 21.0273H0.739602C0.328712 21.0273 0 20.6992 0 20.2891V14.3008C0 14.0957 0.082178 13.9316 0.205445 13.8086Z" fill="white"/>
<path d="M7.02625 21.0273L20.8321 7.20508C20.9554 7.08203 21.1609 7 21.3663 7H27.3653C27.7762 7 28.1049 7.32812 28.1049 7.73828V14.0137L14.2579 27.7949C14.1346 27.918 13.9292 28 13.7238 28H7.76585C7.35496 28 7.02625 27.6719 7.02625 27.2617V21.0273Z" fill="white"/>
<path d="M7.02625 21.0273L14.0525 14.0137V12.5371L7.02625 21.0273Z" fill="#AD8CEA"/>
<path d="M28.0638 14.0137L21.0376 21.0273V22.5039L28.0638 14.0137Z" fill="#AD8CEA"/>
<path d="M162.918 16.3106C162.877 16.2696 162.795 16.2285 162.712 16.2285H157.576C157.412 16.2285 157.289 16.3516 157.289 16.5156V19.4278C157.289 19.5918 157.412 19.7149 157.576 19.7149H158.973V22.627L158.603 23.0371L155.604 23.0781L155.193 22.668V12.168L155.604 11.7578H158.562L158.973 12.127L159.014 14.2188C159.014 14.3828 159.138 14.5059 159.302 14.5059L162.712 14.5469C162.795 14.5469 162.877 14.5059 162.918 14.4649C162.959 14.4238 163 14.3418 163 14.2598C163 14.2598 162.959 11.1016 162.959 10.8965L162.918 10.6914C162.918 10.6094 162.877 10.5684 162.836 10.5274C162.836 10.5274 160.165 7.90237 160.042 7.82033C160 7.82033 159.959 7.77932 159.959 7.77932C159.672 7.7383 154.988 7.69729 154.495 7.7383L154.289 7.77932C154.207 7.77932 154.166 7.82033 154.084 7.86135C154.084 7.86135 151.536 10.4863 151.413 10.6094L151.207 10.8145C151.166 10.8555 151.125 10.9375 151.125 11.0196C151.125 11.0196 151.125 23.4883 151.125 23.7344L151.166 24.0215C151.166 24.1035 151.207 24.1446 151.249 24.1856C151.249 24.1856 153.878 26.9336 154.125 27.0156C154.289 27.0567 159.672 27.0567 159.959 27.0156C160 27.0156 160.083 26.9746 160.124 26.9336C160.206 26.8516 162.918 24.0625 162.918 24.0625C162.959 24.0215 163 23.9395 163 23.8574L163.041 16.5156C163 16.4336 162.959 16.3516 162.918 16.3106Z" fill="white"/>
<path d="M56.0453 19.3867L55.7988 19.0176C55.6345 18.8125 55.3879 18.4023 55.1003 17.9922L55.0592 17.9102C54.8538 17.623 54.6483 17.2949 54.6072 17.2539C54.6483 17.1719 54.9359 16.8438 55.0592 16.7207C55.3057 16.4336 55.6345 16.0645 55.7988 15.8594L56.0453 15.5723C56.0864 15.5312 56.1275 15.4492 56.1275 15.3672V13.2344C56.1275 12.168 56.0864 10.9375 56.0864 10.7734C56.0453 10.5684 55.9632 10.4863 54.6483 9.17383L53.3335 7.86133C53.2924 7.82031 53.2102 7.7793 53.1691 7.7793L52.9637 7.73828C52.5528 7.69727 45.732 7.69727 44.3761 7.69727C44.2117 7.69727 44.0885 7.82031 44.0885 7.98438C44.0885 9.00977 44.0474 12.7832 44.0474 17.377V26.7285C44.0474 26.8926 44.1706 27.0156 44.335 27.0156H48.3206C50.786 27.0156 52.6761 26.9746 52.9226 26.9746L53.128 26.9336C53.2102 26.9336 53.2513 26.8926 53.2924 26.8516L54.5661 25.5801C55.3057 24.8828 55.881 24.2676 55.9632 24.1445C56.0043 24.0625 56.0453 23.9805 56.0043 23.8984C56.0043 23.8574 56.0043 23.8164 56.0043 23.7344C56.0043 23.4473 56.0453 22.873 56.0453 21.6836V19.4688C56.0864 19.5098 56.0864 19.4277 56.0453 19.3867ZM51.731 15.2031C51.5666 15.2852 51.4845 15.3262 49.882 15.3262H48.1563V11.7988H49.882C51.6077 11.7988 51.6077 11.7988 51.7721 11.9219C52.0186 12.127 52.0597 12.291 52.0597 13.5625C52.0186 14.875 52.0186 14.998 51.731 15.2031ZM48.1563 19.4277H49.8409C51.3201 19.4277 51.5256 19.4277 51.6899 19.5098C52.0186 19.7148 52.0186 19.8379 52.0186 21.1914C52.0186 22.5039 51.9775 22.627 51.6899 22.873C51.5256 22.9961 51.4845 22.9961 49.8409 22.9961H48.1152V19.4277H48.1563Z" fill="white"/>
<path d="M111.926 22.9961H105.558L105.517 19.5918H110.653C110.817 19.5918 110.94 19.4687 110.94 19.3047V16.3516C110.94 16.1875 110.817 16.0645 110.653 16.0645H105.517V11.8398H111.926C112.091 11.8398 112.214 11.7168 112.214 11.5527V8.02539C112.214 7.94336 112.173 7.86133 112.132 7.82031C112.091 7.7793 112.009 7.73828 111.926 7.73828H101.736C101.572 7.73828 101.449 7.86133 101.449 8.02539V26.7695C101.449 26.9336 101.572 27.0566 101.736 27.0566H111.926C112.091 27.0566 112.214 26.9336 112.214 26.7695V23.3242C112.255 23.1602 112.132 22.9961 111.926 22.9961Z" fill="white"/>
<path d="M98.7779 26.6055L97.9562 25.0469L93.8473 17.3359C93.8473 17.3359 97.9151 9.33789 98.4903 8.14844C98.5314 8.06641 98.5314 7.94336 98.4903 7.86133C98.4492 7.7793 98.326 7.69727 98.2438 7.69727C97.874 7.69727 97.2576 7.69727 96.5591 7.69727H94.5869C94.4636 7.69727 94.3814 7.7793 94.2992 7.86133L91.0943 14.5469V7.98438C91.0943 7.82031 90.971 7.69727 90.8067 7.69727H87.3141C87.2319 7.69727 87.1498 7.73828 87.1087 7.7793C87.0676 7.82031 87.0265 7.90234 87.0265 7.98438L87.0676 26.7285C87.0676 26.8926 87.1908 27.0156 87.3552 27.0156L90.8478 27.0566C90.9299 27.0566 91.0121 27.0156 91.0532 26.9746C91.0943 26.9336 91.1354 26.8516 91.1354 26.7695V20.043L94.3814 26.8516C94.4225 26.9746 94.5458 27.0156 94.669 27.0156H97.0111C97.7096 27.0156 98.2438 27.0156 98.6136 27.0156C98.7368 27.0156 98.819 26.9746 98.8601 26.8516C98.819 26.8105 98.819 26.6875 98.7779 26.6055Z" fill="white"/>
<path d="M83.9859 22.9551H77.576V8.02539C77.576 7.86133 77.4528 7.73828 77.2884 7.73828H73.8369C73.7548 7.73828 73.6726 7.7793 73.6315 7.82031C73.5904 7.86133 73.5493 7.94336 73.5493 8.02539V26.7695C73.5493 26.9336 73.6726 27.0566 73.8369 27.0566H84.027C84.1914 27.0566 84.3146 26.9336 84.3146 26.7695V23.2832C84.2735 23.0781 84.1503 22.9551 83.9859 22.9551Z" fill="white"/>
<path d="M133.416 7.69727H129.964C129.882 7.69727 129.8 7.73828 129.759 7.7793C129.718 7.82031 129.677 7.90234 129.677 7.98438V26.7285C129.677 26.8926 129.8 27.0156 129.964 27.0156H133.416C133.498 27.0156 133.58 26.9746 133.621 26.9336C133.663 26.8926 133.704 26.8105 133.704 26.7285V7.98438C133.704 7.82031 133.58 7.69727 133.416 7.69727Z" fill="white"/>
<path d="M148.454 8.02539C148.454 7.86133 148.331 7.73828 148.167 7.73828H144.715C144.551 7.73828 144.428 7.86133 144.428 8.02539C144.428 8.02539 144.428 17.0898 144.346 17.459C144.181 17.2129 140.113 7.90234 140.113 7.90234C140.072 7.7793 139.949 7.73828 139.826 7.73828H136.662C136.58 7.73828 136.498 7.7793 136.456 7.82031C136.415 7.86133 136.374 7.94336 136.374 8.02539L136.415 26.7695C136.415 26.9336 136.539 27.0566 136.703 27.0566L140.196 27.0977C140.237 27.0977 140.36 27.0566 140.401 27.0156C140.442 26.9746 140.483 26.8926 140.483 26.8105L140.524 17.2129L143.811 24.7188L144.756 26.8926C144.798 27.0156 144.921 27.0566 145.044 27.0566H148.126C148.208 27.0566 148.29 27.0156 148.331 26.9746C148.372 26.9336 148.413 26.8516 148.413 26.7695L148.454 8.02539Z" fill="white"/>
<path d="M126.636 7.73828L115.214 7.69727C115.131 7.69727 115.049 7.73828 115.008 7.7793C114.967 7.82031 114.926 7.90234 114.926 7.98438V11.4297C114.926 11.5938 115.049 11.7168 115.214 11.7168H118.87L118.912 26.6875C118.912 26.8516 119.035 26.9746 119.199 26.9746L122.692 27.0156C122.774 27.0156 122.856 26.9746 122.897 26.9336C122.938 26.8926 122.979 26.8105 122.979 26.7285V11.7578H126.677C126.76 11.7578 126.842 11.7168 126.883 11.6758C126.924 11.6348 126.965 11.5527 126.965 11.4707V8.02539C126.965 7.86133 126.842 7.73828 126.636 7.73828Z" fill="white"/>
<path d="M70.7963 19.3867L70.5498 19.0176C70.3854 18.8125 70.1389 18.4023 69.8513 17.9922L69.8102 17.9102C69.6047 17.623 69.3993 17.2949 69.3582 17.2539C69.3993 17.1719 69.6869 16.8438 69.8102 16.7207C70.0567 16.4336 70.3854 16.0645 70.5498 15.8594L70.7963 15.5723C70.8374 15.5312 70.8785 15.4492 70.8785 15.3672V13.2344C70.8785 12.168 70.8374 10.9375 70.8374 10.7734C70.7963 10.5684 70.7141 10.4863 69.3993 9.17383L68.0844 7.86133C68.0434 7.82031 67.9612 7.7793 67.9201 7.7793L67.7146 7.73828C67.3038 7.69727 60.483 7.69727 59.127 7.69727C58.9627 7.69727 58.8394 7.82031 58.8394 7.98438C58.8394 9.00977 58.7983 12.7832 58.7983 17.377V26.7285C58.7983 26.8926 58.9216 27.0156 59.086 27.0156H63.0716C65.5369 27.0156 67.427 26.9746 67.6736 26.9746L67.879 26.9336C67.9612 26.9336 68.0023 26.8926 68.0434 26.8516L69.3171 25.5801C70.0567 24.8828 70.632 24.2676 70.7141 24.1445C70.7552 24.0625 70.7963 23.9805 70.7552 23.8984C70.7552 23.8574 70.7552 23.8164 70.7552 23.7344C70.7552 23.4473 70.7963 22.873 70.7963 21.6836V19.4688C70.8374 19.5098 70.8374 19.4277 70.7963 19.3867ZM66.4409 15.2031C66.2765 15.2852 66.1944 15.3262 64.5919 15.3262H62.8661V11.7988H64.5919C66.3176 11.7988 66.3176 11.7988 66.482 11.9219C66.7285 12.127 66.7696 12.291 66.7696 13.5625C66.7696 14.875 66.7285 14.998 66.4409 15.2031ZM62.8661 19.4277H64.5508C66.03 19.4277 66.2354 19.4277 66.3998 19.5098C66.7285 19.7148 66.7285 19.8379 66.7285 21.1914C66.7285 22.5039 66.6874 22.627 66.3998 22.873C66.2354 22.9961 66.1944 22.9961 64.5508 22.9961H62.8251V19.4277H62.8661Z" fill="white"/>
</g>
<defs>
<clipPath id="clip0_54_4">
<rect width="163" height="21" fill="white" transform="translate(0 7)"/>
</clipPath>
</defs>
</svg>
